<svg width="1194" height="1243" viewBox="0 0 1194 1243" fill="none" xmlns="http://www.w3.org/2000/svg">
<line x1="117" y1="517.972" x2="117" y2="1217.97" stroke="white" stroke-width="50" stroke-linecap="round"/>
<line x1="417.25" y1="936.982" x2="417.25" y2="1212" stroke="white" stroke-width="50" stroke-linecap="round"/>
<line x1="769.942" y1="818.058" x2="769.058" y2="1197.14" stroke="white" stroke-width="50" stroke-linecap="round"/>
<line x1="25" y1="602.685" x2="590.685" y2="37" stroke="white" stroke-width="50" stroke-linecap="round"/>
<line x1="1157.69" y1="601.041" x2="592" y2="35.3554" stroke="white" stroke-width="50" stroke-linecap="round"/>
<line x1="1069" y1="518" x2="1069" y2="1218" stroke="white" stroke-width="50" stroke-linecap="round"/>
<line x1="485.114" y1="471.007" x2="454.007" y2="604.787" stroke="white" stroke-width="30" stroke-linecap="round"/>
<line x1="593.181" y1="443.171" x2="667.171" y2="525.819" stroke="white" stroke-width="30" stroke-linecap="round"/>
<line x1="117" y1="1218" x2="1067" y2="1218" stroke="white" stroke-width="50" stroke-linecap="round"/>
<rect x="217.839" y="700.663" width="692.427" height="287.03" rx="24.5" transform="rotate(-20 217.839 700.663)" stroke="white" stroke-width="45"/>
<circle cx="545" cy="480" r="60" stroke="white" stroke-width="30"/>
<path d="M463.6 743.216C461.985 739.785 459.546 737.55 456.282 736.51C453.038 735.426 449.077 735.735 444.4 737.437C441.303 738.564 438.869 739.907 437.098 741.465C435.327 743.022 434.184 744.699 433.668 746.494C433.141 748.257 433.19 750.047 433.815 751.865C434.291 753.373 435.056 754.573 436.112 755.468C437.201 756.35 438.532 756.998 440.108 757.411C441.703 757.78 443.521 757.958 445.563 757.946C447.604 757.934 449.842 757.758 452.276 757.42L461.496 756.256C466.787 755.536 471.626 755.382 476.013 755.794C480.433 756.195 484.364 757.157 487.804 758.681C491.277 760.194 494.256 762.306 496.741 765.018C499.226 767.73 501.206 771.064 502.683 775.02C504.928 781.29 505.302 787.236 503.805 792.858C502.308 798.481 499.059 803.554 494.057 808.078C489.087 812.59 482.473 816.349 474.215 819.355C465.925 822.372 458.247 823.76 451.182 823.519C444.117 823.278 437.953 821.247 432.691 817.427C427.428 813.607 423.339 807.844 420.425 800.137L443.36 791.79C444.716 794.913 446.539 797.263 448.83 798.84C451.121 800.417 453.789 801.273 456.833 801.407C459.91 801.529 463.206 800.95 466.722 799.671C469.948 798.497 472.531 797.063 474.472 795.37C476.445 793.666 477.763 791.816 478.425 789.822C479.088 787.827 479.071 785.824 478.375 783.812C477.662 781.953 476.5 780.568 474.89 779.656C473.268 778.712 471.103 778.185 468.396 778.074C465.71 777.92 462.407 778.081 458.489 778.557L447.254 779.906C437.957 781.062 430.043 780.344 423.511 777.753C416.967 775.13 412.343 770.055 409.64 762.527C407.377 756.41 407.067 750.44 408.711 744.618C410.355 738.796 413.642 733.526 418.574 728.809C423.505 724.092 429.729 720.365 437.245 717.63C444.922 714.835 452.059 713.717 458.655 714.275C465.272 714.79 470.996 716.816 475.827 720.354C480.658 723.893 484.228 728.731 486.535 734.869L463.6 743.216ZM600.737 715.769C604.705 726.672 605.972 736.677 604.538 745.784C603.104 754.89 599.522 762.715 593.793 769.257C588.097 775.787 580.813 780.666 571.942 783.895C563.039 787.135 554.301 788.069 545.728 786.696C537.155 785.323 529.398 781.626 522.457 775.604C515.537 769.538 510.099 761.069 506.142 750.199C502.174 739.296 500.891 729.297 502.293 720.201C503.727 711.095 507.292 703.276 512.989 696.746C518.686 690.216 525.985 685.331 534.888 682.09C543.759 678.862 552.475 677.918 561.036 679.258C569.63 680.587 577.403 684.279 584.356 690.333C591.308 696.387 596.769 704.866 600.737 715.769ZM576.254 724.68C573.905 718.229 571.002 713.112 567.543 709.329C564.116 705.535 560.277 703.115 556.024 702.07C551.803 701.012 547.306 701.352 542.532 703.09C537.79 704.816 534.126 707.446 531.54 710.981C528.955 714.516 527.553 718.843 527.334 723.964C527.148 729.073 528.229 734.853 530.577 741.305C532.925 747.756 535.813 752.879 539.239 756.673C542.698 760.456 546.554 762.87 550.807 763.915C555.06 764.961 559.557 764.621 564.299 762.895C569.073 761.158 572.737 758.527 575.29 755.004C577.876 751.469 579.262 747.147 579.448 742.038C579.667 736.918 578.602 731.132 576.254 724.68ZM632.754 760.227L596.687 661.132L620.638 652.414L649.626 732.058L690.851 717.053L697.931 736.504L632.754 760.227ZM746.958 718.66L710.329 731.992L674.262 632.897L710.842 619.583C720.938 615.908 730.354 614.728 739.088 616.042C747.843 617.312 755.554 620.935 762.222 626.91C768.879 632.853 774.079 640.969 777.825 651.259C781.582 661.582 782.827 671.175 781.559 680.038C780.324 688.889 776.768 696.632 770.889 703.265C764.999 709.865 757.022 714.997 746.958 718.66ZM726.849 702.855L738.607 698.576C744.155 696.556 748.508 693.913 751.665 690.644C754.844 687.332 756.642 683.189 757.06 678.215C757.498 673.197 756.42 667.123 753.825 659.994C751.231 652.866 748.164 647.552 744.626 644.054C741.076 640.524 737.01 638.534 732.425 638.084C727.862 637.59 722.741 638.376 717.064 640.442L705.645 644.598L726.849 702.855Z" fill="white"/>
</svg>
